<svg width="16" height="17" viewBox="0 0 16 17" fill="none" xmlns="http://www.w3.org/2000/svg">
<rect y="0.5" width="16" height="16" rx="8" fill="#E05252"/>
<path d="M7.484 10.432C7.42 10.432 7.376 10.424 7.352 10.408C7.336 10.392 7.328 10.34 7.328 10.252L7.136 5.08C7.136 5.024 7.144 4.984 7.16 4.96C7.176 4.936 7.212 4.924 7.268 4.924H8.696C8.784 4.924 8.828 4.972 8.828 5.068L8.624 10.252C8.624 10.332 8.616 10.384 8.6 10.408C8.584 10.424 8.532 10.432 8.444 10.432H7.484ZM8.708 12.556C8.708 12.764 8.656 12.924 8.552 13.036C8.456 13.148 8.248 13.204 7.928 13.204C7.648 13.204 7.444 13.148 7.316 13.036C7.196 12.924 7.136 12.764 7.136 12.556C7.136 12.348 7.196 12.192 7.316 12.088C7.444 11.976 7.648 11.92 7.928 11.92C8.248 11.92 8.456 11.976 8.552 12.088C8.656 12.192 8.708 12.348 8.708 12.556Z" fill="#F5F1EF"/>
</svg>
